<svg width="22" height="22" viewBox="0 0 22 22" fill="none" xmlns="http://www.w3.org/2000/svg">
<path d="M21 10.5V4.11397C21 3.32299 21 2.92751 20.8059 2.51966C20.6952 2.28705 20.443 1.97064 20.241 1.81079C19.8868 1.53051 19.5912 1.46281 19 1.3274C18.0803 1.11675 17.0659 1 16 1C14.0829 1 12.3325 1.37764 11 2C9.6675 2.62236 7.91707 3 6 3C4.93408 3 3.91969 2.88325 3 2.6726C2.04003 2.45273 1 3.12914 1 4.11397V14.886C1 15.677 1 16.0725 1.19412 16.4803C1.30483 16.7129 1.55696 17.0294 1.75898 17.1892C2.11319 17.4695 2.4088 17.5372 3 17.6726C3.91969 17.8833 4.93408 18 6 18C7.46884 18 8.83983 17.7783 10 17.3947" stroke="#D78100" stroke-width="1.5" stroke-linecap="round"/>
<path d="M13.5 9.5C13.5 10.8807 12.3807 12 11 12C9.6193 12 8.5 10.8807 8.5 9.5C8.5 8.11929 9.6193 7 11 7C12.3807 7 13.5 8.11929 13.5 9.5Z" stroke="#D78100" stroke-width="1.5"/>
<path d="M4.5 10.5V10.509" stroke="#D78100" stroke-width="2" stroke-linecap="round" stroke-linejoin="round"/>
<path d="M17.5 8.49219V8.50117" stroke="#D78100" stroke-width="2" stroke-linecap="round" stroke-linejoin="round"/>
<path d="M18.3333 13L19.1565 13.7579C19.3357 13.934 19.4253 14.0221 19.3938 14.0969C19.3622 14.1717 19.2355 14.1717 18.9821 14.1717H15.8777C14.2884 14.1717 13 15.438 13 17C13 17.3521 13.0655 17.6891 13.185 18M15.6667 21L14.8435 20.2421C14.6643 20.066 14.5747 19.9779 14.6062 19.9031C14.6378 19.8283 14.7645 19.8283 15.0179 19.8283H18.1223C19.7116 19.8283 21 18.562 21 17C21 16.6479 20.9345 16.3109 20.815 16" stroke="#D78100" stroke-width="1.5" stroke-linecap="round" stroke-linejoin="round"/>
</svg>
