<svg width="24" height="16" viewBox="0 0 24 16" fill="none" xmlns="http://www.w3.org/2000/svg">
<path d="M21.9972 15.7499L21.9994 15.7499C22.9545 15.7581 23.7381 14.9773 23.75 14.0042L23.75 2.0063C23.7462 1.53569 23.5589 1.08617 23.2297 0.756802C22.9014 0.428269 22.4589 0.246149 21.9972 0.250071L2.00064 0.250062C1.54109 0.246149 1.09858 0.428269 0.770279 0.756802C0.441145 1.08617 0.253838 1.53569 0.250008 2.00426L0.25 13.9937C0.253838 14.4643 0.441145 14.9138 0.770279 15.2432C1.09858 15.5717 1.54109 15.7538 2.00277 15.7499H21.9972ZM21.9962 16.2499C21.9958 16.2499 21.9955 16.2499 21.9951 16.2499L21.9972 16.2499H21.9962Z" fill="white" stroke="black" stroke-opacity="0.2" stroke-width="0.5"/>
<path d="M12.6123 15.9999H21.9971C22.5239 16.0043 23.0309 15.7993 23.4065 15.4299C23.7821 15.0605 23.9955 14.5571 23.9999 14.0303V11.6717C20.4561 13.706 16.6127 15.1668 12.6123 15.9999Z" fill="#F27712"/>
<path d="M23.1725 9.29648H22.32L21.3601 8.03027H21.269V9.29648H20.5738V6.15165H21.6C22.4028 6.15165 22.8663 6.48269 22.8663 7.07855C22.8663 7.56682 22.5766 7.88131 22.0552 7.98062L23.1725 9.29648ZM22.1463 7.10338C22.1463 6.79717 21.9145 6.63993 21.4842 6.63993H21.269V7.59165H21.4676C21.9145 7.59165 22.1463 7.42613 22.1463 7.10338ZM18.1407 6.15165H20.1104V6.68131H18.8359V7.38476H20.0607V7.92269H18.8359V8.7751H20.1104V9.30476H18.1407V6.15165ZM15.9063 9.37924L14.4001 6.14338H15.1614L16.1132 8.262L17.0732 6.14338H17.818L16.2952 9.37924H15.9228H15.9063ZM9.60833 9.37096C8.54902 9.37096 7.72143 8.65096 7.72143 7.71579C7.72143 6.80544 8.56557 6.06889 9.62488 6.06889C9.92281 6.06889 10.1711 6.12682 10.4773 6.25924V6.98751C10.2454 6.75969 9.9334 6.63192 9.60833 6.63165C8.94626 6.63165 8.44143 7.11165 8.44143 7.71579C8.44143 8.35303 8.93798 8.8082 9.64143 8.8082C9.95591 8.8082 10.1959 8.70889 10.4773 8.46062V9.18889C10.1628 9.32131 9.89798 9.37096 9.60833 9.37096ZM7.50626 8.33648C7.50626 8.94889 7.00143 9.37096 6.27315 9.37096C5.7435 9.37096 5.36281 9.18889 5.04005 8.7751L5.49522 8.38613C5.65246 8.66751 5.91729 8.8082 6.24833 8.8082C6.56281 8.8082 6.78626 8.61786 6.78626 8.36958C6.78626 8.22889 6.72005 8.12131 6.57936 8.03855C6.4251 7.96369 6.26446 7.90276 6.09936 7.85648C5.44557 7.64958 5.22212 7.42613 5.22212 6.98751C5.22212 6.47441 5.70212 6.08544 6.33109 6.08544C6.72833 6.08544 7.08419 6.20958 7.38212 6.44131L7.01798 6.8551C6.87366 6.69688 6.66938 6.60676 6.45522 6.60682C6.15729 6.60682 5.94212 6.75579 5.94212 6.95441C5.94212 7.11993 6.06626 7.21096 6.48005 7.35165C7.27453 7.59993 7.50626 7.83165 7.50626 8.34476V8.33648ZM4.08833 6.15165H4.7835V9.30476H4.08833V6.15165ZM1.85384 9.30476H0.827637V6.15165H1.85384C2.97936 6.15165 3.75729 6.79717 3.75729 7.72407C3.75729 8.19579 3.52557 8.64269 3.12005 8.94062C2.77246 9.18889 2.3835 9.30476 1.84557 9.30476H1.85384ZM2.66488 6.93786C2.43315 6.75579 2.16833 6.68958 1.71315 6.68958H1.52281V8.7751H1.71315C2.16005 8.7751 2.44143 8.69234 2.66488 8.52682C2.90488 8.3282 3.04557 8.03027 3.04557 7.72407C3.04557 7.41786 2.90488 7.1282 2.66488 6.93786Z" fill="black"/>
<path d="M12.414 6.06889C11.5036 6.06889 10.7588 6.79717 10.7588 7.69924C10.7588 8.65924 11.4705 9.37924 12.414 9.37924C13.3409 9.37924 14.0691 8.65096 14.0691 7.72407C14.0691 6.79717 13.3491 6.06889 12.414 6.06889Z" fill="#F27712"/>
</svg>
