<svg width="34" height="34" viewBox="0 0 34 34" fill="none" xmlns="http://www.w3.org/2000/svg">
<g clip-path="url(#clip0_7631_30263)">
<path d="M9.32006 13.3137H9.59374C10.6474 13.3137 11.5095 14.1758 11.5095 15.2295V24.8083C11.5095 25.862 10.6474 26.724 9.59374 26.724H9.32006C8.26639 26.724 7.4043 25.862 7.4043 24.8083V15.2295C7.4043 14.1758 8.26639 13.3137 9.32006 13.3137ZM16.9831 7.56641C18.0368 7.56641 18.8989 8.4285 18.8989 9.48217V24.8083C18.8989 25.862 18.0368 26.724 16.9831 26.724C15.9294 26.724 15.0674 25.862 15.0674 24.8083V9.48217C15.0674 8.4285 15.9294 7.56641 16.9831 7.56641ZM24.6462 18.5136C25.6998 18.5136 26.5619 19.3757 26.5619 20.4294V24.8083C26.5619 25.862 25.6998 26.724 24.6462 26.724C23.5925 26.724 22.7304 25.862 22.7304 24.8083V20.4294C22.7304 19.3757 23.5925 18.5136 24.6462 18.5136Z" fill="#2648EA"/>
</g>
<defs>
<clipPath id="clip0_7631_30263">
<rect width="32.8417" height="32.8417" fill="white" transform="translate(0.5625 0.724609)"/>
</clipPath>
</defs>
</svg>
