<svg width="15" height="16" viewBox="0 0 15 16" fill="none" xmlns="http://www.w3.org/2000/svg">
<path d="M11.6617 1.04395V2.4439M3.26196 1.04395V2.4439" stroke="#494A50" stroke-width="1.5" stroke-linecap="round" stroke-linejoin="round"/>
<path d="M7.45594 8.74023H7.46224M7.45594 11.5401H7.46224M10.2527 8.74023H10.259M4.65918 8.74023H4.66546M4.65918 11.5401H4.66546" stroke="#494A50" stroke-width="2" stroke-linecap="round" stroke-linejoin="round"/>
<path d="M1.51196 5.24023H13.4116" stroke="#494A50" stroke-width="1.5" stroke-linecap="round" stroke-linejoin="round"/>
<path d="M0.811035 8.21026C0.811035 5.16028 0.811035 3.63527 1.68749 2.68775C2.56395 1.74023 3.97457 1.74023 6.79584 1.74023H8.12579C10.9471 1.74023 12.3577 1.74023 13.2342 2.68775C14.1106 3.63527 14.1106 5.16028 14.1106 8.21026V8.56977C14.1106 11.6198 14.1106 13.1447 13.2342 14.0923C12.3577 15.0398 10.9471 15.0398 8.12579 15.0398H6.79584C3.97457 15.0398 2.56395 15.0398 1.68749 14.0923C0.811035 13.1447 0.811035 11.6198 0.811035 8.56977V8.21026Z" stroke="#494A50" stroke-width="1.5" stroke-linecap="round" stroke-linejoin="round"/>
<path d="M1.15918 5.24023H13.7588" stroke="#494A50" stroke-width="1.5" stroke-linecap="round" stroke-linejoin="round"/>
</svg>
