<svg width="47" height="48" viewBox="0 0 47 48" fill="none" xmlns="http://www.w3.org/2000/svg">
<rect x="0.5" y="1.26367" width="46" height="46" rx="11.5" fill="white"/>
<rect x="0.5" y="1.26367" width="46" height="46" rx="11.5" stroke="#EAEBF0"/>
<path d="M18.5 33.2637V30.2637" stroke="#494A50" stroke-width="1.5" stroke-linecap="round" stroke-linejoin="round"/>
<path d="M28.5 33.2637V27.2637" stroke="#494A50" stroke-width="1.5" stroke-linecap="round" stroke-linejoin="round"/>
<path d="M28.5 18.2637V15.2637" stroke="#494A50" stroke-width="1.5" stroke-linecap="round" stroke-linejoin="round"/>
<path d="M18.5 21.2637V15.2637" stroke="#494A50" stroke-width="1.5" stroke-linecap="round" stroke-linejoin="round"/>
<path d="M18.5 30.2637C17.5681 30.2637 17.1022 30.2637 16.7346 30.1115C16.2446 29.9085 15.8552 29.5191 15.6522 29.0291C15.5 28.6615 15.5 28.1956 15.5 27.2637C15.5 26.3318 15.5 25.8659 15.6522 25.4983C15.8552 25.0083 16.2446 24.6189 16.7346 24.4159C17.1022 24.2637 17.5681 24.2637 18.5 24.2637C19.4319 24.2637 19.8978 24.2637 20.2654 24.4159C20.7554 24.6189 21.1448 25.0083 21.3478 25.4983C21.5 25.8659 21.5 26.3318 21.5 27.2637C21.5 28.1956 21.5 28.6615 21.3478 29.0291C21.1448 29.5191 20.7554 29.9085 20.2654 30.1115C19.8978 30.2637 19.4319 30.2637 18.5 30.2637Z" stroke="#494A50" stroke-width="1.5"/>
<path d="M28.5 24.2637C27.5681 24.2637 27.1022 24.2637 26.7346 24.1115C26.2446 23.9085 25.8552 23.5191 25.6522 23.0291C25.5 22.6615 25.5 22.1956 25.5 21.2637C25.5 20.3318 25.5 19.8659 25.6522 19.4983C25.8552 19.0083 26.2446 18.6189 26.7346 18.4159C27.1022 18.2637 27.5681 18.2637 28.5 18.2637C29.4319 18.2637 29.8978 18.2637 30.2654 18.4159C30.7554 18.6189 31.1448 19.0083 31.3478 19.4983C31.5 19.8659 31.5 20.3318 31.5 21.2637C31.5 22.1956 31.5 22.6615 31.3478 23.0291C31.1448 23.5191 30.7554 23.9085 30.2654 24.1115C29.8978 24.2637 29.4319 24.2637 28.5 24.2637Z" stroke="#494A50" stroke-width="1.5"/>
</svg>
