<svg width="87" height="33" viewBox="0 0 87 33" fill="none" xmlns="http://www.w3.org/2000/svg">
<g filter="url(#filter0_d_3190_2214)">
<rect x="2" width="83" height="30" rx="15" fill="#2648EA"/>
<path d="M19.8118 20.5H17.843L21.4276 10.3182H23.7045L27.294 20.5H25.3253L22.6058 12.4062H22.5263L19.8118 20.5ZM19.8764 16.5078H25.2457V17.9893H19.8764V16.5078ZM31.157 20.6342C30.5571 20.6342 30.0201 20.4801 29.5462 20.1719C29.0722 19.8636 28.6977 19.4162 28.4226 18.8295C28.1475 18.2429 28.0099 17.5303 28.0099 16.6918C28.0099 15.8433 28.1491 15.1274 28.4276 14.544C28.7093 13.9574 29.0888 13.5149 29.5661 13.2166C30.0433 12.915 30.5753 12.7642 31.1619 12.7642C31.6094 12.7642 31.9773 12.8404 32.2656 12.9929C32.554 13.142 32.7827 13.3227 32.9517 13.5348C33.1207 13.7436 33.2517 13.9408 33.3445 14.1264H33.419V10.3182H35.2237V20.5H33.4538V19.2969H33.3445C33.2517 19.4825 33.1174 19.6797 32.9418 19.8885C32.7661 20.094 32.5341 20.2696 32.2457 20.4155C31.9574 20.5613 31.5945 20.6342 31.157 20.6342ZM31.6591 19.1577C32.0402 19.1577 32.3651 19.0549 32.6335 18.8494C32.902 18.6406 33.1058 18.3506 33.245 17.9794C33.3842 17.6082 33.4538 17.1757 33.4538 16.6818C33.4538 16.188 33.3842 15.7588 33.245 15.3942C33.1091 15.0296 32.907 14.7462 32.6385 14.544C32.3733 14.3419 32.0469 14.2408 31.6591 14.2408C31.258 14.2408 30.9233 14.3452 30.6548 14.554C30.3864 14.7628 30.1842 15.0511 30.0483 15.419C29.9124 15.7869 29.8445 16.2079 29.8445 16.6818C29.8445 17.1591 29.9124 17.585 30.0483 17.9595C30.1875 18.3307 30.3913 18.6241 30.6598 18.8395C30.9316 19.0516 31.2647 19.1577 31.6591 19.1577ZM39.9753 20.6342C39.3754 20.6342 38.8385 20.4801 38.3645 20.1719C37.8906 19.8636 37.516 19.4162 37.2409 18.8295C36.9658 18.2429 36.8283 17.5303 36.8283 16.6918C36.8283 15.8433 36.9675 15.1274 37.2459 14.544C37.5276 13.9574 37.9071 13.5149 38.3844 13.2166C38.8617 12.915 39.3936 12.7642 39.9803 12.7642C40.4277 12.7642 40.7956 12.8404 41.084 12.9929C41.3723 13.142 41.601 13.3227 41.7701 13.5348C41.9391 13.7436 42.07 13.9408 42.1628 14.1264H42.2374V10.3182H44.0421V20.5H42.2722V19.2969H42.1628C42.07 19.4825 41.9358 19.6797 41.7601 19.8885C41.5845 20.094 41.3525 20.2696 41.0641 20.4155C40.7757 20.5613 40.4128 20.6342 39.9753 20.6342ZM40.4775 19.1577C40.8586 19.1577 41.1834 19.0549 41.4519 18.8494C41.7203 18.6406 41.9242 18.3506 42.0634 17.9794C42.2026 17.6082 42.2722 17.1757 42.2722 16.6818C42.2722 16.188 42.2026 15.7588 42.0634 15.3942C41.9275 15.0296 41.7253 14.7462 41.4569 14.544C41.1917 14.3419 40.8652 14.2408 40.4775 14.2408C40.0764 14.2408 39.7417 14.3452 39.4732 14.554C39.2047 14.7628 39.0025 15.0511 38.8667 15.419C38.7308 15.7869 38.6628 16.2079 38.6628 16.6818C38.6628 17.1591 38.7308 17.585 38.8667 17.9595C39.0059 18.3307 39.2097 18.6241 39.4782 18.8395C39.7499 19.0516 40.083 19.1577 40.4775 19.1577Z" fill="white"/>
<path d="M55.25 15H65M61.25 10.5L65.2197 14.4697C65.5126 14.7626 65.5126 15.2374 65.2197 15.5303L61.25 19.5" stroke="white" stroke-width="1.67" stroke-linecap="round"/>
</g>
<defs>
<filter id="filter0_d_3190_2214" x="0" y="-1" width="87" height="34" filterUnits="userSpaceOnUse" color-interpolation-filters="sRGB">
<feFlood flood-opacity="0" result="BackgroundImageFix"/>
<feColorMatrix in="SourceAlpha" type="matrix" values="0 0 0 0 0 0 0 0 0 0 0 0 0 0 0 0 0 0 127 0" result="hardAlpha"/>
<feOffset dy="1"/>
<feGaussianBlur stdDeviation="1"/>
<feComposite in2="hardAlpha" operator="out"/>
<feColorMatrix type="matrix" values="0 0 0 0 0.0627451 0 0 0 0 0.0941176 0 0 0 0 0.156863 0 0 0 0.04 0"/>
<feBlend mode="normal" in2="BackgroundImageFix" result="effect1_dropShadow_3190_2214"/>
<feBlend mode="normal" in="SourceGraphic" in2="effect1_dropShadow_3190_2214" result="shape"/>
</filter>
</defs>
</svg>
