<svg width="558" height="416" viewBox="0 0 558 416" fill="none" xmlns="http://www.w3.org/2000/svg">
<path d="M557.095 364.786H0V365.064H557.095V364.786Z" fill="#EBEBEB"/>
<path d="M95.3522 375.393H58.4502V375.672H95.3522V375.393Z" fill="#EBEBEB"/>
<path d="M252.431 372.374H190.682V372.652H252.431V372.374Z" fill="#EBEBEB"/>
<path d="M122.772 382.011H101.391V382.29H122.772V382.011Z" fill="#EBEBEB"/>
<path d="M477.597 375.259H429.475V375.537H477.597V375.259Z" fill="#EBEBEB"/>
<path d="M494.577 375.259H487.524V375.537H494.577V375.259Z" fill="#EBEBEB"/>
<path d="M361.053 379.17H308.864V379.448H361.053V379.17Z" fill="#EBEBEB"/>
<path d="M264.063 315.093H48.9241C47.2387 315.09 45.6234 314.418 44.4327 313.225C43.242 312.033 42.5732 310.416 42.5732 308.731V6.30631C42.5879 4.6306 43.2631 3.02834 44.4523 1.84757C45.6414 0.666796 47.2483 0.00287058 48.9241 0H264.063C265.75 0 267.369 0.670283 268.562 1.86339C269.755 3.0565 270.425 4.67471 270.425 6.36202V308.731C270.425 310.418 269.755 312.036 268.562 313.229C267.369 314.423 265.75 315.093 264.063 315.093ZM48.9241 0.222839C47.3126 0.22579 45.7681 0.868026 44.6297 2.00858C43.4912 3.14913 42.8518 4.6948 42.8518 6.30631V308.731C42.8518 310.342 43.4912 311.888 44.6297 313.029C45.7681 314.169 47.3126 314.811 48.9241 314.814H264.063C265.676 314.811 267.221 314.169 268.361 313.029C269.502 311.889 270.144 310.343 270.146 308.731V6.30631C270.144 4.69378 269.502 3.14813 268.361 2.0079C267.221 0.867664 265.676 0.225784 264.063 0.222839H48.9241Z" fill="#EBEBEB"/>
<path d="M505.074 315.093H289.924C288.237 315.09 286.621 314.419 285.428 313.226C284.236 312.034 283.564 310.417 283.562 308.731V6.30631C283.579 4.62958 284.257 3.02734 285.448 1.84687C286.639 0.666406 288.247 0.00283928 289.924 0H505.074C506.747 0.00579879 508.352 0.67102 509.538 1.85148C510.725 3.03194 511.399 4.63252 511.413 6.30631V308.731C511.413 310.414 510.746 312.029 509.558 313.222C508.369 314.414 506.757 315.087 505.074 315.093ZM289.924 0.222839C288.311 0.225784 286.765 0.867664 285.625 2.0079C284.485 3.14813 283.843 4.69378 283.84 6.30631V308.731C283.843 310.343 284.485 311.889 285.625 313.029C286.765 314.169 288.311 314.811 289.924 314.814H505.074C506.686 314.811 508.232 314.169 509.372 313.029C510.512 311.889 511.154 310.343 511.157 308.731V6.30631C511.154 4.69378 510.512 3.14813 509.372 2.0079C508.232 0.867664 506.686 0.225784 505.074 0.222839H289.924Z" fill="#EBEBEB"/>
<path d="M253.244 33.4932H66.0156V364.786H253.244V33.4932Z" fill="#F0F0F0"/>
<path d="M253.244 16.2227H66.0156V21.3368H253.244V16.2227Z" fill="#F5F5F5"/>
<path d="M253.244 16.2227H66.0156V21.3368H253.244V16.2227Z" fill="#F5F5F5"/>
<path d="M493.319 16.2227H306.09V21.3368H493.319V16.2227Z" fill="#F5F5F5"/>
<path d="M218.203 74.1606H48.4009V84.6786H218.203V74.1606Z" fill="#D9D9D9"/>
<path d="M218.203 84.6787H253.244V74.1608H218.203V84.6787Z" fill="#E0E0E0"/>
<path d="M218.203 163.296H48.4009V173.814H218.203V163.296Z" fill="#D9D9D9"/>
<path d="M218.203 173.814H253.244V163.296H218.203V173.814Z" fill="#E0E0E0"/>
<path d="M218.203 252.431H48.4009V262.949H218.203V252.431Z" fill="#D9D9D9"/>
<path d="M218.203 262.949H253.244V252.431H218.203V262.949Z" fill="#E0E0E0"/>
<path d="M114.216 125.413H85.6258C83.5459 125.413 81.8599 127.099 81.8599 129.179V159.541C81.8599 161.621 83.5459 163.307 85.6258 163.307H114.216C116.296 163.307 117.982 161.621 117.982 159.541V129.179C117.982 127.099 116.296 125.413 114.216 125.413Z" fill="white"/>
<path d="M102.283 130.104H81.8599V158.472H102.283V130.104Z" fill="#F0F0F0"/>
<path d="M108.422 120.254H91.4082C90.7621 120.254 90.2383 120.778 90.2383 121.424V124.232C90.2383 124.878 90.7621 125.402 91.4082 125.402H108.422C109.068 125.402 109.592 124.878 109.592 124.232V121.424C109.592 120.778 109.068 120.254 108.422 120.254Z" fill="#E0E0E0"/>
<path d="M163.396 125.413H134.806C132.726 125.413 131.04 127.099 131.04 129.179V159.541C131.04 161.621 132.726 163.307 134.806 163.307H163.396C165.475 163.307 167.162 161.621 167.162 159.541V129.179C167.162 127.099 165.475 125.413 163.396 125.413Z" fill="white"/>
<path d="M151.463 130.104H131.04V158.472H151.463V130.104Z" fill="#F0F0F0"/>
<path d="M157.602 120.254H140.588C139.942 120.254 139.418 120.778 139.418 121.424V124.232C139.418 124.878 139.942 125.402 140.588 125.402H157.602C158.248 125.402 158.772 124.878 158.772 124.232V121.424C158.772 120.778 158.248 120.254 157.602 120.254Z" fill="#E0E0E0"/>
<path d="M212.575 125.413H183.985C181.905 125.413 180.219 127.099 180.219 129.179V159.541C180.219 161.621 181.905 163.307 183.985 163.307H212.575C214.655 163.307 216.341 161.621 216.341 159.541V129.179C216.341 127.099 214.655 125.413 212.575 125.413Z" fill="white"/>
<path d="M200.642 130.104H180.219V158.472H200.642V130.104Z" fill="#F0F0F0"/>
<path d="M206.783 120.254H189.77C189.123 120.254 188.6 120.778 188.6 121.424V124.232C188.6 124.878 189.123 125.402 189.77 125.402H206.783C207.429 125.402 207.953 124.878 207.953 124.232V121.424C207.953 120.778 207.429 120.254 206.783 120.254Z" fill="#E0E0E0"/>
<path d="M98.8068 53.916H81.7485V74.1608H98.8068V53.916Z" fill="#E0E0E0"/>
<path d="M99.4084 58.9634H85.3696V69.1248H99.4084V58.9634Z" fill="#F5F5F5"/>
<path d="M99.3521 49.6265H81.202C80.4451 49.6265 79.8315 50.24 79.8315 50.9969V54.1166C79.8315 54.8735 80.4451 55.4871 81.202 55.4871H99.3521C100.109 55.4871 100.723 54.8735 100.723 54.1166V50.9969C100.723 50.24 100.109 49.6265 99.3521 49.6265Z" fill="#D9D9D9"/>
<path d="M131.441 53.916H114.383V74.1608H131.441V53.916Z" fill="#E0E0E0"/>
<path d="M132.043 58.9634H118.004V69.1248H132.043V58.9634Z" fill="#F5F5F5"/>
<path d="M131.987 49.6265H113.837C113.08 49.6265 112.466 50.24 112.466 50.9969V54.1166C112.466 54.8735 113.08 55.4871 113.837 55.4871H131.987C132.744 55.4871 133.357 54.8735 133.357 54.1166V50.9969C133.357 50.24 132.744 49.6265 131.987 49.6265Z" fill="#D9D9D9"/>
<path d="M164.075 53.916H147.017V74.1608H164.075V53.916Z" fill="#E0E0E0"/>
<path d="M164.677 58.9634H150.639V69.1248H164.677V58.9634Z" fill="#F5F5F5"/>
<path d="M164.622 49.6265H146.472C145.715 49.6265 145.101 50.24 145.101 50.9969V54.1166C145.101 54.8735 145.715 55.4871 146.472 55.4871H164.622C165.379 55.4871 165.992 54.8735 165.992 54.1166V50.9969C165.992 50.24 165.379 49.6265 164.622 49.6265Z" fill="#D9D9D9"/>
<path d="M196.699 53.916H179.641V74.1608H196.699V53.916Z" fill="#E0E0E0"/>
<path d="M197.301 58.9634H183.262V69.1248H197.301V58.9634Z" fill="#F5F5F5"/>
<path d="M197.245 49.6265H179.095C178.338 49.6265 177.724 50.24 177.724 50.9969V54.1166C177.724 54.8735 178.338 55.4871 179.095 55.4871H197.245C198.002 55.4871 198.615 54.8735 198.615 54.1166V50.9969C198.615 50.24 198.002 49.6265 197.245 49.6265Z" fill="#D9D9D9"/>
<path d="M99.1633 219.919H78.1831V252.431H99.1633V219.919Z" fill="#D9D9D9"/>
<path d="M93.9712 227.785H78.1831V244.565H93.9712V227.785Z" fill="#E6E6E6"/>
<path d="M99.1627 252.431H108.266V219.919H99.1627V252.431Z" fill="#E6E6E6"/>
<path d="M132.589 219.919H111.609V252.431H132.589V219.919Z" fill="#D9D9D9"/>
<path d="M127.397 227.785H111.609V244.565H127.397V227.785Z" fill="#E6E6E6"/>
<path d="M132.589 252.431H141.692V219.919H132.589V252.431Z" fill="#E6E6E6"/>
<path d="M166.014 219.919H145.034V252.431H166.014V219.919Z" fill="#D9D9D9"/>
<path d="M160.822 227.785H145.034V244.565H160.822V227.785Z" fill="#E6E6E6"/>
<path d="M166.014 252.431H175.117V219.919H166.014V252.431Z" fill="#E6E6E6"/>
<path d="M199.44 219.919H178.46V252.431H199.44V219.919Z" fill="#D9D9D9"/>
<path d="M194.248 227.785H178.46V244.565H194.248V227.785Z" fill="#E6E6E6"/>
<path d="M199.439 252.431H208.542V219.919H199.439V252.431Z" fill="#E6E6E6"/>
<path d="M493.319 33.4932H306.09V364.786H493.319V33.4932Z" fill="#F0F0F0"/>
<path d="M458.277 74.1606H288.475V84.6786H458.277V74.1606Z" fill="#D9D9D9"/>
<path d="M458.277 84.6787H493.318V74.1608H458.277V84.6787Z" fill="#E0E0E0"/>
<path d="M458.277 163.296H288.475V173.814H458.277V163.296Z" fill="#D9D9D9"/>
<path d="M458.277 173.814H493.318V163.296H458.277V173.814Z" fill="#E0E0E0"/>
<path d="M458.277 252.431H288.475V262.949H458.277V252.431Z" fill="#D9D9D9"/>
<path d="M458.277 262.949H493.318V252.431H458.277V262.949Z" fill="#E0E0E0"/>
<path d="M352.719 232.22H320.397C318.046 232.22 316.141 234.125 316.141 236.476V248.175C316.141 250.526 318.046 252.431 320.397 252.431H352.719C355.07 252.431 356.976 250.526 356.976 248.175V236.476C356.976 234.125 355.07 232.22 352.719 232.22Z" fill="white"/>
<path d="M339.227 237.523H316.141V246.971H339.227V237.523Z" fill="#F0F0F0"/>
<path d="M346.168 226.392H326.937C326.204 226.392 325.611 226.986 325.611 227.718V230.893C325.611 231.626 326.204 232.219 326.937 232.219H346.168C346.9 232.219 347.494 231.626 347.494 230.893V227.718C347.494 226.986 346.9 226.392 346.168 226.392Z" fill="#E0E0E0"/>
<path d="M408.317 232.22H375.994C373.644 232.22 371.738 234.125 371.738 236.476V248.175C371.738 250.526 373.644 252.431 375.994 252.431H408.317C410.668 252.431 412.573 250.526 412.573 248.175V236.476C412.573 234.125 410.668 232.22 408.317 232.22Z" fill="white"/>
<path d="M394.824 237.523H371.738V246.971H394.824V237.523Z" fill="#F0F0F0"/>
<path d="M401.777 226.392H382.546C381.814 226.392 381.22 226.986 381.22 227.718V230.893C381.22 231.626 381.814 232.219 382.546 232.219H401.777C402.509 232.219 403.103 231.626 403.103 230.893V227.718C403.103 226.986 402.509 226.392 401.777 226.392Z" fill="#E0E0E0"/>
<path d="M463.927 232.22H431.604C429.253 232.22 427.348 234.125 427.348 236.476V248.175C427.348 250.526 429.253 252.431 431.604 252.431H463.927C466.277 252.431 468.183 250.526 468.183 248.175V236.476C468.183 234.125 466.277 232.22 463.927 232.22Z" fill="white"/>
<path d="M450.434 237.523H427.348V246.971H450.434V237.523Z" fill="#F0F0F0"/>
<path d="M457.374 226.392H438.143C437.411 226.392 436.817 226.986 436.817 227.718V230.893C436.817 231.626 437.411 232.219 438.143 232.219H457.374C458.106 232.219 458.7 231.626 458.7 230.893V227.718C458.7 226.986 458.106 226.392 457.374 226.392Z" fill="#E0E0E0"/>
<path d="M347.616 139.185H325.7V163.296H347.616V139.185Z" fill="#E0E0E0"/>
<path d="M348.374 145.19H330.346V157.29H348.374V145.19Z" fill="#F5F5F5"/>
<path d="M348.964 137.324H324.34C323.731 137.324 323.237 137.818 323.237 138.427V139.196C323.237 139.805 323.731 140.299 324.34 140.299H348.964C349.573 140.299 350.067 139.805 350.067 139.196V138.427C350.067 137.818 349.573 137.324 348.964 137.324Z" fill="#D9D9D9"/>
<path d="M389.521 139.185H367.605V163.296H389.521V139.185Z" fill="#E0E0E0"/>
<path d="M390.289 145.19H372.262V157.29H390.289V145.19Z" fill="#F5F5F5"/>
<path d="M390.869 137.324H366.245C365.636 137.324 365.142 137.818 365.142 138.427V139.196C365.142 139.805 365.636 140.299 366.245 140.299H390.869C391.478 140.299 391.972 139.805 391.972 139.196V138.427C391.972 137.818 391.478 137.324 390.869 137.324Z" fill="#D9D9D9"/>
<path d="M431.437 139.185H409.521V163.296H431.437V139.185Z" fill="#E0E0E0"/>
<path d="M432.195 145.19H414.167V157.29H432.195V145.19Z" fill="#F5F5F5"/>
<path d="M432.785 137.324H408.162C407.552 137.324 407.059 137.818 407.059 138.427V139.196C407.059 139.805 407.552 140.299 408.162 140.299H432.785C433.394 140.299 433.888 139.805 433.888 139.196V138.427C433.888 137.818 433.394 137.324 432.785 137.324Z" fill="#D9D9D9"/>
<path d="M473.341 139.185H451.425V163.296H473.341V139.185Z" fill="#E0E0E0"/>
<path d="M474.098 145.19H456.071V157.29H474.098V145.19Z" fill="#F5F5F5"/>
<path d="M474.69 137.324H450.066C449.457 137.324 448.963 137.818 448.963 138.427V139.196C448.963 139.805 449.457 140.299 450.066 140.299H474.69C475.299 140.299 475.793 139.805 475.793 139.196V138.427C475.793 137.818 475.299 137.324 474.69 137.324Z" fill="#D9D9D9"/>
<path d="M351.493 50.8965H332.317V74.1608H351.493V50.8965Z" fill="#D9D9D9"/>
<path d="M346.735 56.5342H332.317V68.534H346.735V56.5342Z" fill="#E6E6E6"/>
<path d="M351.493 74.1606H359.805V50.8964H351.493V74.1606Z" fill="#E6E6E6"/>
<path d="M382.033 50.8965H362.858V74.1608H382.033V50.8965Z" fill="#D9D9D9"/>
<path d="M377.275 56.5342H362.858V68.534H377.275V56.5342Z" fill="#E6E6E6"/>
<path d="M382.033 74.1606H390.345V50.8964H382.033V74.1606Z" fill="#E6E6E6"/>
<path d="M412.574 50.8965H393.398V74.1608H412.574V50.8965Z" fill="#D9D9D9"/>
<path d="M407.816 56.5342H393.398V68.534H407.816V56.5342Z" fill="#E6E6E6"/>
<path d="M412.573 74.1606H420.885V50.8964H412.573V74.1606Z" fill="#E6E6E6"/>
<path d="M443.113 50.8965H423.938V74.1608H443.113V50.8965Z" fill="#D9D9D9"/>
<path d="M438.356 56.5342H423.938V68.534H438.356V56.5342Z" fill="#E6E6E6"/>
<path d="M443.113 74.1606H451.425V50.8964H443.113V74.1606Z" fill="#E6E6E6"/>
<path d="M278.547 415.103C397.857 415.103 494.577 409.456 494.577 402.49C494.577 395.524 397.857 389.877 278.547 389.877C159.237 389.877 62.5166 395.524 62.5166 402.49C62.5166 409.456 159.237 415.103 278.547 415.103Z" fill="#F5F5F5"/>
<path d="M276.741 47.0742C265.856 52.2106 264.808 67.1296 268.942 79.7311C271.883 88.8341 264.162 89.3132 262.357 102.137C261.721 106.753 262.186 111.454 263.713 115.856C265.241 120.258 267.787 124.236 271.146 127.466C274.504 130.696 278.578 133.086 283.036 134.441C287.494 135.796 292.209 136.077 296.797 135.262C316.005 131.708 297.409 91.9872 304.462 78.1378C311.515 64.2885 288.44 41.5701 276.741 47.0742Z" fill="#263238"/>
<path d="M313.309 360.819L325.688 361.721C323.983 371.582 322.345 387.136 322.345 387.136H312.529C312.529 387.136 313.677 367.56 313.309 360.819Z" fill="#CE7A63"/>
<path d="M248.875 360.819L261.131 361.721C258.368 371.582 255.103 387.136 255.103 387.136H245.287C245.287 387.136 248.529 367.56 248.875 360.819Z" fill="#CE7A63"/>
<path d="M301.944 396.874C310.479 396.874 309.866 396.74 314.679 396.584C318.791 396.428 319.738 396.952 323.036 396.874C325.799 396.818 325.888 394.178 325.264 391.147C325.03 389.977 324.663 388.618 324.328 386.935C324.233 386.469 323.978 386.051 323.608 385.753C323.238 385.454 322.776 385.293 322.301 385.297H312.329C311.961 385.299 311.599 385.385 311.271 385.549C310.942 385.713 310.656 385.951 310.434 386.245C309.249 387.8 307.758 389.097 306.052 390.055C304.347 391.013 302.464 391.612 300.518 391.815C295.861 392.428 298.524 396.874 301.944 396.874Z" fill="#2648EA"/>
<path d="M234.926 396.874C243.46 396.874 242.859 396.74 247.661 396.584C251.772 396.428 252.719 396.952 256.017 396.874C258.781 396.818 258.87 394.178 258.246 391.147C258.001 389.977 257.644 388.618 257.299 386.935C257.207 386.47 256.956 386.05 256.587 385.751C256.219 385.452 255.757 385.291 255.282 385.298H245.254C244.888 385.297 244.527 385.383 244.2 385.547C243.873 385.712 243.589 385.95 243.371 386.245C242.184 387.799 240.692 389.094 238.987 390.052C237.282 391.01 235.4 391.61 233.455 391.816C228.865 392.428 231.527 396.874 234.926 396.874Z" fill="#2648EA"/>
<path d="M261.689 168.354C261.689 168.354 253.89 228.676 254.603 266.982C251.661 302.937 246.937 371.716 246.937 371.716C247.082 373.554 256.775 372.83 258.502 371.716C258.502 371.716 280.708 325.299 277.098 266.982C301.766 206.147 300.296 168.354 300.296 168.354H261.689Z" fill="#263238"/>
<path opacity="0.2" d="M293.42 217.066C291.504 224.921 289.042 233.634 285.9 243.116C284.986 224.018 279.816 198.448 279.649 197.579L293.42 217.066Z" fill="black"/>
<path d="M272.195 168.354C272.195 168.354 289.833 236.431 296.819 269.868C304.161 304.976 314.445 348.396 312.418 371.727C314.379 372.841 321.398 372.953 325.364 371.727C325.364 371.727 340.473 305.221 321.264 271.45C328.217 188.287 306.212 168.387 306.212 168.387L272.195 168.354Z" fill="#263238"/>
<path d="M311.56 366.869C311.482 368.478 311.285 370.08 310.969 371.66C310.94 371.791 310.939 371.927 310.964 372.059C310.99 372.191 311.043 372.316 311.119 372.427C311.196 372.538 311.294 372.632 311.408 372.703C311.522 372.774 311.65 372.821 311.783 372.841C316.496 373.598 323.393 372.495 325.587 372.105C325.791 372.065 325.978 371.965 326.125 371.819C326.272 371.672 326.372 371.485 326.412 371.281L327.236 366.824C327.257 366.685 327.248 366.544 327.209 366.409C327.17 366.274 327.102 366.149 327.009 366.043C326.917 365.937 326.803 365.852 326.675 365.795C326.547 365.737 326.408 365.708 326.267 365.71L312.563 365.977C312.316 365.981 312.079 366.073 311.895 366.236C311.711 366.4 311.592 366.624 311.56 366.869Z" fill="#263238"/>
<path opacity="0.1" d="M311.56 366.869C311.482 368.478 311.285 370.08 310.969 371.66C310.94 371.791 310.939 371.927 310.964 372.059C310.99 372.191 311.043 372.316 311.119 372.427C311.196 372.538 311.294 372.632 311.408 372.703C311.522 372.774 311.65 372.821 311.783 372.841C316.496 373.598 323.393 372.495 325.587 372.105C325.791 372.065 325.978 371.965 326.125 371.819C326.272 371.672 326.372 371.485 326.412 371.281L327.236 366.824C327.257 366.685 327.248 366.544 327.209 366.409C327.17 366.274 327.102 366.149 327.009 366.043C326.917 365.937 326.803 365.852 326.675 365.795C326.547 365.737 326.408 365.708 326.267 365.71L312.563 365.977C312.316 365.981 312.079 366.073 311.895 366.236C311.711 366.4 311.592 366.624 311.56 366.869Z" fill="white"/>
<path d="M246.001 366.657C245.867 367.905 245.622 370.134 245.388 371.772C245.368 371.899 245.373 372.029 245.403 372.155C245.434 372.28 245.489 372.398 245.566 372.502C245.643 372.606 245.74 372.693 245.851 372.759C245.962 372.825 246.085 372.868 246.213 372.886C250.464 373.238 254.739 373.189 258.981 372.741C259.191 372.721 259.39 372.638 259.551 372.503C259.712 372.368 259.828 372.186 259.884 371.983L261.076 367.527C261.117 367.386 261.125 367.238 261.1 367.094C261.075 366.95 261.017 366.813 260.931 366.695C260.845 366.577 260.733 366.48 260.604 366.411C260.474 366.343 260.331 366.305 260.185 366.301L247.06 365.777C246.805 365.764 246.554 365.847 246.358 366.01C246.162 366.173 246.034 366.404 246.001 366.657Z" fill="#263238"/>
<path opacity="0.1" d="M246.001 366.657C245.867 367.905 245.622 370.134 245.388 371.772C245.368 371.899 245.373 372.029 245.403 372.155C245.434 372.28 245.489 372.398 245.566 372.502C245.643 372.606 245.74 372.693 245.851 372.759C245.962 372.825 246.085 372.868 246.213 372.886C250.464 373.238 254.739 373.189 258.981 372.741C259.191 372.721 259.39 372.638 259.551 372.503C259.712 372.368 259.828 372.186 259.884 371.983L261.076 367.527C261.117 367.386 261.125 367.238 261.1 367.094C261.075 366.95 261.017 366.813 260.931 366.695C260.845 366.577 260.733 366.48 260.604 366.411C260.474 366.343 260.331 366.305 260.185 366.301L247.06 365.777C246.805 365.764 246.554 365.847 246.358 366.01C246.162 366.173 246.034 366.404 246.001 366.657Z" fill="white"/>
<path d="M201.789 121.981L203.94 124.655C204.34 125.15 204.851 125.542 205.432 125.799C206.013 126.057 206.647 126.173 207.282 126.137L213.31 125.781C214.497 125.71 215.65 125.355 216.672 124.746C217.694 124.138 218.554 123.293 219.182 122.282L219.984 121.012C216.708 116.332 209.722 113.692 209.722 113.692L207.806 112.722C207.027 112.303 206.113 112.209 205.265 112.462C204.417 112.714 203.704 113.293 203.282 114.071L201.299 117.825C200.968 118.491 200.838 119.238 200.925 119.976C201.012 120.715 201.312 121.411 201.789 121.981Z" fill="#CE7A63"/>
<path d="M213.82 101.279L203.597 103.45C202.712 103.638 202.147 104.507 202.335 105.392L204.993 117.904C205.18 118.789 206.05 119.354 206.935 119.166L217.158 116.995C218.043 116.807 218.608 115.937 218.42 115.052L215.763 102.541C215.575 101.656 214.705 101.091 213.82 101.279Z" fill="#2648EA"/>
<path d="M182.881 77.4143L182.055 78.1621L184.74 81.1272L185.566 80.3793L182.881 77.4143Z" fill="#2648EA"/>
<path d="M222.075 88.7981L217.343 94.3105L218.189 95.0362L222.92 89.5238L222.075 88.7981Z" fill="#2648EA"/>
<path d="M188.363 83.4753L187.537 84.2231L199.159 97.0579L199.985 96.3101L188.363 83.4753Z" fill="#2648EA"/>
<path d="M183.439 96.314L183.073 97.3662L196.962 102.203L197.328 101.151L183.439 96.314Z" fill="#2648EA"/>
<path d="M211.336 99.1245L204.993 100.472C204.602 100.555 204.352 100.939 204.435 101.331L205.463 106.17C205.546 106.561 205.93 106.811 206.322 106.728L212.665 105.38C213.056 105.297 213.306 104.913 213.223 104.522L212.195 99.6825C212.112 99.2912 211.727 99.0414 211.336 99.1245Z" fill="#2648EA"/>
<path d="M211.446 95.488L203.403 97.1962C203.036 97.2742 202.801 97.6351 202.879 98.0022L203.578 101.294C203.656 101.661 204.017 101.895 204.385 101.817L212.428 100.109C212.795 100.031 213.029 99.6703 212.951 99.3031L212.252 96.0116C212.174 95.6445 211.814 95.41 211.446 95.488Z" fill="#263238"/>
<path opacity="0.8" d="M216.098 104.087L204.992 106.446L206.89 115.383L217.996 113.024L216.098 104.087Z" fill="white"/>
<path d="M273.644 116.499C273.32 117.045 273.12 117.335 272.864 117.736L272.128 118.85L270.658 120.934C269.666 122.316 268.641 123.641 267.582 124.945C265.465 127.541 263.259 130.07 260.897 132.455C256.138 137.384 250.729 141.642 244.82 145.112C243.304 145.981 241.755 146.794 240.151 147.541L238.937 148.076L238.636 148.209L238.469 148.287L238.201 148.388C237.838 148.536 237.466 148.663 237.087 148.766C235.603 149.212 234.055 149.405 232.508 149.335C229.901 149.192 227.363 148.452 225.087 147.173C223.284 146.177 221.585 145.001 220.018 143.663C217.326 141.3 214.844 138.709 212.597 135.92C211.483 134.583 210.458 133.257 209.433 131.898C208.92 131.218 208.419 130.538 207.929 129.836C207.438 129.134 206.959 128.499 206.391 127.608L220.608 119.853C220.786 120.31 221.098 121.034 221.399 121.625C221.7 122.215 222.023 122.862 222.357 123.474C223.003 124.703 223.713 125.897 224.486 127.051C225.876 129.244 227.513 131.27 229.366 133.09C230.097 133.811 230.908 134.446 231.783 134.984C232.192 135.248 232.645 135.436 233.121 135.541H233.221L233.444 135.441L234.346 135.04C235.538 134.482 236.719 133.859 237.878 133.19C240.209 131.792 242.425 130.212 244.508 128.466C246.626 126.663 248.625 124.724 250.491 122.661C252.373 120.543 254.122 118.31 255.727 115.976C256.519 114.862 257.298 113.636 258.023 112.444C258.39 111.842 258.736 111.252 259.07 110.65L259.538 109.77C259.672 109.502 259.861 109.135 259.906 109.001L273.644 116.499Z" fill="#2648EA"/>
<path opacity="0.7" d="M273.644 116.499C273.32 117.045 273.12 117.335 272.864 117.736L272.128 118.85L270.658 120.934C269.666 122.316 268.641 123.641 267.582 124.945C265.465 127.541 263.259 130.07 260.897 132.455C256.138 137.384 250.729 141.642 244.82 145.112C243.304 145.981 241.755 146.794 240.151 147.541L238.937 148.076L238.636 148.209L238.469 148.287L238.201 148.388C237.838 148.536 237.466 148.663 237.087 148.766C235.603 149.212 234.055 149.405 232.508 149.335C229.901 149.192 227.363 148.452 225.087 147.173C223.284 146.177 221.585 145.001 220.018 143.663C217.326 141.3 214.844 138.709 212.597 135.92C211.483 134.583 210.458 133.257 209.433 131.898C208.92 131.218 208.419 130.538 207.929 129.836C207.438 129.134 206.959 128.499 206.391 127.608L220.608 119.853C220.786 120.31 221.098 121.034 221.399 121.625C221.7 122.215 222.023 122.862 222.357 123.474C223.003 124.703 223.713 125.897 224.486 127.051C225.876 129.244 227.513 131.27 229.366 133.09C230.097 133.811 230.908 134.446 231.783 134.984C232.192 135.248 232.645 135.436 233.121 135.541H233.221L233.444 135.441L234.346 135.04C235.538 134.482 236.719 133.859 237.878 133.19C240.209 131.792 242.425 130.212 244.508 128.466C246.626 126.663 248.625 124.724 250.491 122.661C252.373 120.543 254.122 118.31 255.727 115.976C256.519 114.862 257.298 113.636 258.023 112.444C258.39 111.842 258.736 111.252 259.07 110.65L259.538 109.77C259.672 109.502 259.861 109.135 259.906 109.001L273.644 116.499Z" fill="white"/>
<path d="M257.555 117.324C257.298 123.928 257.398 130.541 257.856 137.134C258.213 145.735 260.084 154.783 262.424 168.71C267.137 171.462 290.959 170.326 306.201 168.353C305.276 156.153 306.791 142.203 315.059 114.75C316.975 108.388 312.696 102.271 305.878 101.625C304.05 101.446 302.112 101.301 300.128 101.212C293.169 100.75 286.186 100.75 279.226 101.212C276.998 101.413 274.591 101.68 272.341 101.97C264.218 103.028 257.8 109.691 257.555 117.324Z" fill="#2648EA"/>
<path d="M261.599 171.64C276.967 173.338 292.477 173.308 307.838 171.551C307.993 171.516 308.138 171.449 308.265 171.354C308.391 171.258 308.496 171.137 308.572 170.997C308.648 170.858 308.693 170.704 308.705 170.546C308.717 170.388 308.695 170.229 308.64 170.08C308.261 169.189 307.883 168.309 307.526 167.417C307.448 167.223 307.31 167.058 307.131 166.948C306.953 166.837 306.743 166.787 306.534 166.805C291.76 168.431 276.852 168.431 262.078 166.805C261.944 166.788 261.807 166.798 261.676 166.836C261.546 166.874 261.425 166.939 261.321 167.025C261.216 167.112 261.131 167.219 261.069 167.34C261.008 167.462 260.972 167.594 260.964 167.729C260.864 168.654 260.775 169.568 260.685 170.493C260.67 170.628 260.681 170.765 260.719 170.896C260.756 171.027 260.819 171.149 260.904 171.256C260.989 171.363 261.094 171.451 261.213 171.517C261.333 171.583 261.464 171.625 261.599 171.64Z" fill="#2648EA"/>
<path d="M298.658 77.6919C296.842 84.377 294.613 96.7445 298.981 101.235C298.981 101.235 300.307 107.82 282.268 107.207C268.374 106.739 278.09 101.235 278.09 101.235C285.733 99.4409 285.956 93.8811 285.031 88.6555L298.658 77.6919Z" fill="#CE7A63"/>
<path d="M299.459 100.188C299.459 100.188 291.548 107.218 289.186 124.165C284.73 156.543 291.515 289.121 291.515 289.121C291.515 289.121 320.484 279.661 331.002 270.603C331.492 261.533 313.977 177.991 315.515 154.014C317.052 130.037 320.027 109.146 316.93 104.633C313.832 100.121 299.459 100.188 299.459 100.188Z" fill="#2648EA"/>
<path opacity="0.7" d="M299.459 100.188C299.459 100.188 291.548 107.218 289.186 124.165C284.73 156.543 291.515 289.121 291.515 289.121C291.515 289.121 320.484 279.661 331.002 270.603C331.492 261.533 313.977 177.991 315.515 154.014C317.052 130.037 320.027 109.146 316.93 104.633C313.832 100.121 299.459 100.188 299.459 100.188Z" fill="white"/>
<path d="M278.646 100.856C266.591 116.332 266.68 216.921 270.167 289.154C259.46 287.862 248.017 266.146 248.017 266.146C248.017 266.146 259.605 189.523 257.376 157.1C255.148 124.677 255.46 113.301 260.719 107.307C265.978 101.313 278.646 100.856 278.646 100.856Z" fill="#2648EA"/>
<path opacity="0.7" d="M278.646 100.856C266.591 116.332 266.68 216.921 270.167 289.154C259.46 287.862 248.017 266.146 248.017 266.146C248.017 266.146 259.605 189.523 257.376 157.1C255.148 124.677 255.46 113.301 260.719 107.307C265.978 101.313 278.646 100.856 278.646 100.856Z" fill="white"/>
<path d="M298.446 99.608C296.374 101.391 286.469 110.304 287.806 147.072C288.809 142.917 293.377 123.218 298.201 113.836C297.219 113.149 296.057 112.761 294.859 112.722C296.161 112.024 297.653 111.762 299.115 111.975C300.474 109.235 303.26 103.474 305.967 100.377C303.059 98.5049 298.446 99.608 298.446 99.608Z" fill="white"/>
<path d="M269.822 147.073C269.822 147.073 271.972 112.9 279.058 100.711C276.311 100.085 273.428 100.536 271.003 101.97C269.521 103.753 267.582 110.605 267.582 112.087C268.724 111.803 269.929 111.938 270.98 112.466C269.753 112.702 268.574 113.142 267.493 113.769C267.025 116.187 266.802 129.101 269.822 147.073Z" fill="white"/>
<path d="M303.995 142.382H294.424C294.252 142.371 294.085 142.323 293.933 142.242C293.782 142.162 293.649 142.05 293.543 141.914C293.438 141.778 293.363 141.621 293.322 141.454C293.282 141.287 293.278 141.113 293.31 140.945L293.7 136.399C293.714 136.034 293.859 135.687 294.109 135.421C294.359 135.155 294.696 134.987 295.059 134.95H304.63C304.802 134.963 304.969 135.012 305.121 135.094C305.273 135.176 305.406 135.288 305.511 135.425C305.616 135.562 305.691 135.719 305.731 135.887C305.772 136.055 305.776 136.229 305.744 136.399L305.343 140.945C305.329 141.306 305.185 141.651 304.937 141.915C304.689 142.179 304.355 142.345 303.995 142.382Z" fill="white"/>
<path opacity="0.1" d="M298.39 142.382H295.783L297.788 134.95H300.395L298.39 142.382Z" fill="#2648EA"/>
<path opacity="0.1" d="M302.011 142.382H299.415L301.421 134.95H304.017L302.011 142.382Z" fill="#2648EA"/>
<path d="M299.626 135.73C299.158 135.73 298.813 135.463 298.869 135.118L299.17 133.034C299.232 132.84 299.359 132.674 299.529 132.563C299.7 132.451 299.903 132.401 300.105 132.421C300.573 132.421 300.919 132.689 300.874 133.034L300.573 135.118C300.507 135.311 300.377 135.477 300.206 135.588C300.034 135.699 299.83 135.749 299.626 135.73Z" fill="#2648EA"/>
<path opacity="0.2" d="M293.097 82.1602L285.02 88.6447C285.251 89.8683 285.374 91.1098 285.387 92.355C288.284 91.9427 292.451 88.8007 292.986 85.7924C293.239 84.598 293.277 83.3679 293.097 82.1602Z" fill="black"/>
<path d="M304.406 64.1882C302.367 75.0515 301.732 79.6865 295.493 84.8898C286.167 92.6891 273.354 88.5889 272.095 77.5139C270.981 67.5419 274.513 51.453 285.71 47.8653C288.092 46.9948 290.664 46.7799 293.158 47.2431C295.651 47.7063 297.974 48.8306 299.885 50.4985C301.795 52.1664 303.223 54.3168 304.018 56.7249C304.813 59.133 304.948 61.7105 304.406 64.1882Z" fill="#CE7A63"/>
<path d="M285.008 73.1572C282.156 73.1572 279.771 70.2603 279.66 66.6169C279.593 64.9268 280.078 63.261 281.041 61.8705C281.453 61.2569 282.001 60.7474 282.643 60.3819C283.285 60.0165 284.003 59.8052 284.741 59.7646H284.863C287.715 59.7646 290.1 62.6727 290.211 66.3049C290.311 69.9929 287.983 73.0681 285.13 73.1572H285.008ZM284.863 60.3217H284.752C284.102 60.361 283.469 60.5504 282.905 60.8752C282.34 61.2 281.859 61.6513 281.498 62.1936C280.584 63.4938 280.133 65.0632 280.217 66.6503C280.317 69.9929 282.557 72.7115 285.119 72.6447C287.682 72.5778 289.754 69.7478 289.654 66.3718C289.554 62.9847 287.459 60.3217 284.863 60.3217Z" fill="white"/>
<path d="M279.95 66.3048C279.89 66.3048 279.831 66.2852 279.783 66.2491C279.783 66.2491 278.936 65.6251 278.513 66.0708C278.49 66.1033 278.46 66.1304 278.426 66.1504C278.391 66.1704 278.353 66.1828 278.313 66.1867C278.274 66.1906 278.233 66.1859 278.196 66.173C278.158 66.1602 278.124 66.1393 278.095 66.112C278.066 66.0846 278.043 66.0514 278.028 66.0145C278.013 65.9776 278.006 65.9379 278.008 65.8981C278.009 65.8583 278.019 65.8193 278.037 65.7837C278.055 65.7482 278.081 65.7169 278.112 65.692C278.713 65.0458 279.649 65.458 280.117 65.8034C280.176 65.8477 280.216 65.9137 280.226 65.9869C280.236 66.06 280.217 66.1343 280.173 66.1934C280.146 66.2263 280.112 66.2531 280.073 66.2723C280.035 66.2915 279.993 66.3025 279.95 66.3048Z" fill="white"/>
<path d="M273.398 72.1319C270.546 72.1319 268.161 69.235 268.05 65.6027C267.938 61.9705 270.211 58.8396 273.119 58.7505H273.242C276.094 58.7505 278.479 61.6474 278.59 65.2908C278.701 68.9342 276.429 72.0539 273.521 72.1319H273.398ZM273.242 59.3076H273.142C270.534 59.3856 268.507 62.1933 268.607 65.5805C268.707 68.9676 270.835 71.5748 273.398 71.5748H273.498C276.105 71.4968 278.133 68.6891 278.033 65.3019C277.933 61.9148 275.793 59.3076 273.242 59.3076Z" fill="white"/>
<path d="M296.818 54.0604C292.362 63.9767 299.771 68.5449 300.874 71.6646C302.423 80.2662 282.824 97.3467 288.618 124.098C297.063 109.146 308.673 109.859 309.932 99.798C311.191 89.436 305.999 84.1993 311.514 74.2941C317.03 64.389 318.98 52.612 309.286 50.7736C299.593 48.9352 296.818 54.0604 296.818 54.0604Z" fill="#263238"/>
<path d="M302.691 111.786C302.652 111.788 302.612 111.781 302.575 111.765C302.539 111.75 302.506 111.726 302.48 111.697C302.428 111.645 302.4 111.575 302.4 111.502C302.4 111.429 302.428 111.359 302.48 111.307C308.106 106.204 308.53 99.541 308.986 92.477C309.287 87.8531 309.599 83.0621 311.438 78.5608C314.669 70.65 317.354 59.5304 314.256 54.2603C313.814 53.4772 313.189 52.8128 312.434 52.3239C311.68 51.8349 310.818 51.536 309.922 51.4525C309.849 51.4415 309.783 51.4031 309.738 51.3451C309.692 51.2871 309.671 51.214 309.677 51.1406C309.68 51.1033 309.69 51.0669 309.708 51.0339C309.725 51.0008 309.749 50.9718 309.779 50.9487C309.808 50.9256 309.842 50.909 309.878 50.8998C309.915 50.8906 309.952 50.8891 309.989 50.8955C310.97 50.9845 311.915 51.311 312.742 51.8467C313.569 52.3825 314.253 53.1114 314.736 53.9706C317.933 59.419 315.393 70.3603 311.95 78.7725C310.145 83.2292 309.844 87.9311 309.543 92.5104C309.087 99.6858 308.652 106.46 302.858 111.719C302.811 111.758 302.752 111.781 302.691 111.786Z" fill="#263238"/>
<path d="M299.359 55.2634C292.017 56.099 279.036 55.2634 276.05 51.4528C273.064 47.6423 276.953 38.0826 285.588 36.5784C292.607 35.3751 296.819 44.01 296.819 44.01C296.819 44.01 303.504 40.6675 309.331 48.322C314.646 55.2634 303.058 63.1295 299.359 55.2634Z" fill="#263238"/>
<path d="M302.123 69.4691L289.811 67.3521C289.774 67.3469 289.739 67.3341 289.708 67.3147C289.677 67.2953 289.65 67.2696 289.629 67.2393C289.608 67.2089 289.593 67.1746 289.586 67.1384C289.579 67.1022 289.58 67.065 289.588 67.029C289.602 66.9567 289.643 66.8927 289.704 66.851C289.764 66.8093 289.839 66.7931 289.911 66.8062L302.167 68.9231C302.23 68.9359 302.287 68.9701 302.327 69.0198C302.368 69.0696 302.39 69.1319 302.39 69.1961C302.39 69.2604 302.368 69.3226 302.327 69.3724C302.287 69.4221 302.23 69.4563 302.167 69.4691H302.123Z" fill="white"/>
<path d="M287.203 66.0042C287.07 66.9178 286.479 67.6309 285.9 67.5863C285.32 67.5417 284.942 66.7618 285.064 65.8482C285.187 64.9345 285.788 64.2103 286.368 64.2549C286.947 64.2994 287.326 65.0794 287.203 66.0042Z" fill="#263238"/>
<path d="M276.106 65.3466C275.973 66.2602 275.393 66.9733 274.803 66.9287C274.212 66.8841 273.844 66.1042 273.978 65.1906C274.112 64.2769 274.691 63.5639 275.282 63.6084C275.872 63.653 276.24 64.4218 276.106 65.3466Z" fill="#263238"/>
<path d="M275.526 63.6758L273.454 62.8735C273.454 62.8735 274.323 64.6897 275.526 63.6758Z" fill="#263238"/>
<path d="M278.97 67.085C277.867 69.1247 276.507 71.0155 274.926 72.7116C275.951 73.9261 278.046 73.5584 278.046 73.5584L278.97 67.085Z" fill="#BA4D3C"/>
<path d="M282.735 77.3355C282.228 77.386 281.716 77.386 281.209 77.3355C281.174 77.3327 281.14 77.323 281.11 77.3067C281.079 77.2905 281.051 77.2681 281.03 77.241C281.008 77.2139 280.992 77.1826 280.982 77.149C280.973 77.1154 280.97 77.0803 280.975 77.0458C280.986 76.9729 281.024 76.907 281.082 76.8614C281.14 76.8159 281.214 76.7941 281.287 76.8006C282.438 76.888 283.594 76.7162 284.67 76.2978C285.746 75.8794 286.714 75.225 287.504 74.3829C287.529 74.3579 287.558 74.3381 287.591 74.3246C287.623 74.3111 287.658 74.3042 287.694 74.3042C287.729 74.3042 287.764 74.3111 287.796 74.3246C287.829 74.3381 287.858 74.3579 287.883 74.3829C287.908 74.4077 287.928 74.4372 287.941 74.4697C287.955 74.5022 287.962 74.5371 287.962 74.5723C287.962 74.6075 287.955 74.6423 287.941 74.6748C287.928 74.7073 287.908 74.7368 287.883 74.7617C286.544 76.2259 284.71 77.1427 282.735 77.3355Z" fill="#263238"/>
<path d="M303.761 75.1853C303.202 76.0839 302.461 76.8555 301.586 77.4504C300.711 78.0453 299.721 78.4503 298.68 78.6393C296.095 78.9958 295.337 75.9875 296.541 73.2132C297.655 70.7174 300.251 67.5308 302.624 68.4556C304.997 69.3804 305.287 72.8121 303.761 75.1853Z" fill="#CE7A63"/>
<path d="M290.802 61.9038C290.735 61.891 290.671 61.8634 290.615 61.823C290.559 61.7825 290.513 61.7302 290.479 61.6698C290.173 61.0879 289.726 60.5916 289.179 60.2259C288.633 59.8601 288.003 59.6365 287.348 59.5752C287.279 59.5756 287.21 59.5613 287.147 59.5333C287.084 59.5052 287.027 59.4641 286.98 59.4125C286.934 59.3609 286.899 59.3 286.878 59.234C286.857 59.1679 286.85 59.0981 286.858 59.0292C286.872 58.8835 286.941 58.7484 287.05 58.6513C287.16 58.5541 287.302 58.502 287.449 58.5055C288.28 58.5681 289.081 58.84 289.779 59.2959C290.476 59.7518 291.047 60.3768 291.437 61.1127C291.5 61.2402 291.511 61.3871 291.467 61.5223C291.424 61.6576 291.329 61.7704 291.203 61.837C291.145 61.8749 291.079 61.9004 291.01 61.9119C290.941 61.9234 290.87 61.9206 290.802 61.9038Z" fill="#263238"/>
<path d="M274 58.1938C273.895 58.2047 273.789 58.1823 273.698 58.1296C273.606 58.0769 273.534 57.9967 273.491 57.9003C273.448 57.804 273.436 57.6965 273.457 57.5932C273.479 57.4898 273.532 57.3958 273.61 57.3247C274.166 56.6524 274.869 56.1176 275.665 55.762C276.462 55.4064 277.329 55.2396 278.201 55.2746C278.269 55.2826 278.335 55.3045 278.394 55.3391C278.454 55.3736 278.506 55.42 278.546 55.4754C278.587 55.5308 278.616 55.594 278.631 55.661C278.647 55.7281 278.648 55.7975 278.635 55.8651C278.611 56.0088 278.533 56.138 278.417 56.2268C278.301 56.3156 278.156 56.3575 278.011 56.3442C277.321 56.327 276.636 56.4677 276.009 56.7554C275.381 57.0431 274.828 57.4703 274.39 58.0043C274.289 58.1146 274.149 58.1824 274 58.1938Z" fill="#263238"/>
<path d="M286.625 64.333L284.552 63.5308C284.552 63.5308 285.421 65.3358 286.625 64.333Z" fill="#263238"/>
<path d="M304.908 180.22L305.699 176.877C305.844 176.257 306.135 175.681 306.548 175.196C306.961 174.712 307.483 174.333 308.073 174.092L313.644 171.808C314.745 171.358 315.937 171.18 317.122 171.286C318.306 171.393 319.448 171.782 320.451 172.42L321.721 173.223C320.786 178.849 315.627 184.253 315.627 184.253L314.334 185.958C314.077 186.315 313.751 186.618 313.376 186.849C313.001 187.08 312.585 187.234 312.15 187.304C311.715 187.373 311.271 187.356 310.842 187.253C310.414 187.15 310.011 186.964 309.655 186.704L306.256 184.175C305.673 183.717 305.235 183.099 304.996 182.397C304.757 181.695 304.726 180.939 304.908 180.22Z" fill="#CE7A63"/>
<path d="M315.749 103.854C316.34 104.232 316.674 104.477 317.097 104.789L318.278 105.67C319.047 106.26 319.805 106.784 320.507 107.441C321.992 108.63 323.43 109.863 324.819 111.14C327.631 113.681 330.298 116.378 332.807 119.218C335.35 122.103 337.681 125.167 339.782 128.388C340.829 130.026 341.843 131.731 342.735 133.446C343.672 135.195 344.516 136.991 345.264 138.828L345.81 140.221L345.877 140.399L345.999 140.744L346.211 141.424C346.322 141.881 346.434 142.338 346.501 142.783C346.759 144.381 346.759 146.01 346.501 147.608C346.07 150.035 345.266 152.38 344.116 154.56C342.234 158.097 339.994 161.431 337.431 164.51C335.08 167.485 332.607 170.226 330.1 172.911C328.841 174.248 327.593 175.585 326.3 176.889L324.351 178.838C323.671 179.496 323.069 180.12 322.3 180.844L311.972 168.376C312.54 167.986 313.253 167.463 313.888 166.972L315.827 165.435C317.108 164.399 318.39 163.351 319.615 162.237C322.04 160.083 324.343 157.796 326.512 155.385C328.516 153.195 330.269 150.789 331.738 148.209C332.239 147.319 332.614 146.363 332.852 145.368C332.852 145.079 332.852 144.945 332.852 145.012C332.848 145.034 332.848 145.056 332.852 145.079C332.847 145.101 332.847 145.123 332.852 145.145V145.023L332.44 143.987C330.024 138.319 326.57 133.154 322.256 128.756C320.068 126.455 317.714 124.317 315.214 122.36C313.966 121.38 312.674 120.444 311.381 119.552C310.724 119.107 310.078 118.661 309.42 118.26L308.44 117.681L307.582 117.202L315.749 103.854Z" fill="#2648EA"/>
<path opacity="0.7" d="M315.749 103.854C316.34 104.232 316.674 104.477 317.097 104.789L318.278 105.67C319.047 106.26 319.805 106.784 320.507 107.441C321.992 108.63 323.43 109.863 324.819 111.14C327.631 113.681 330.298 116.378 332.807 119.218C335.35 122.103 337.681 125.167 339.782 128.388C340.829 130.026 341.843 131.731 342.735 133.446C343.672 135.195 344.516 136.991 345.264 138.828L345.81 140.221L345.877 140.399L345.999 140.744L346.211 141.424C346.322 141.881 346.434 142.338 346.501 142.783C346.759 144.381 346.759 146.01 346.501 147.608C346.07 150.035 345.266 152.38 344.116 154.56C342.234 158.097 339.994 161.431 337.431 164.51C335.08 167.485 332.607 170.226 330.1 172.911C328.841 174.248 327.593 175.585 326.3 176.889L324.351 178.838C323.671 179.496 323.069 180.12 322.3 180.844L311.972 168.376C312.54 167.986 313.253 167.463 313.888 166.972L315.827 165.435C317.108 164.399 318.39 163.351 319.615 162.237C322.04 160.083 324.343 157.796 326.512 155.385C328.516 153.195 330.269 150.789 331.738 148.209C332.239 147.319 332.614 146.363 332.852 145.368C332.852 145.079 332.852 144.945 332.852 145.012C332.848 145.034 332.848 145.056 332.852 145.079C332.847 145.101 332.847 145.123 332.852 145.145V145.023L332.44 143.987C330.024 138.319 326.57 133.154 322.256 128.756C320.068 126.455 317.714 124.317 315.214 122.36C313.966 121.38 312.674 120.444 311.381 119.552C310.724 119.107 310.078 118.661 309.42 118.26L308.44 117.681L307.582 117.202L315.749 103.854Z" fill="white"/>
<path d="M448.55 213.211H117.981V226.637H448.55V213.211Z" fill="#2648EA"/>
<path opacity="0.6" d="M448.55 213.211H117.981V226.637H448.55V213.211Z" fill="white"/>
<path opacity="0.3" d="M448.551 213.21H419.616V226.636H448.551V213.21Z" fill="#2648EA"/>
<path d="M442.656 226.638H123.864V401.109H442.656V226.638Z" fill="#2648EA"/>
<path opacity="0.5" d="M442.656 226.638H123.864V401.109H442.656V226.638Z" fill="white"/>
<path opacity="0.3" d="M442.668 226.637H425.509V401.108H442.668V226.637Z" fill="#2648EA"/>
<path opacity="0.3" d="M442.656 226.638H123.864V231.061H442.656V226.638Z" fill="#2648EA"/>
<path opacity="0.3" d="M275.149 356.363C301.08 356.363 322.101 335.342 322.101 309.411C322.101 283.48 301.08 262.459 275.149 262.459C249.218 262.459 228.197 283.48 228.197 309.411C228.197 335.342 249.218 356.363 275.149 356.363Z" fill="#2648EA"/>
<path d="M272.129 356.363C298.06 356.363 319.081 335.342 319.081 309.411C319.081 283.48 298.06 262.459 272.129 262.459C246.198 262.459 225.177 283.48 225.177 309.411C225.177 335.342 246.198 356.363 272.129 356.363Z" fill="#2648EA"/>
<path d="M270.614 356.363C296.545 356.363 317.566 335.342 317.566 309.411C317.566 283.48 296.545 262.459 270.614 262.459C244.683 262.459 223.662 283.48 223.662 309.411C223.662 335.342 244.683 356.363 270.614 356.363Z" fill="white"/>
<path d="M275.404 281.333H265.822C264.069 281.333 262.647 282.755 262.647 284.508V334.313C262.647 336.066 264.069 337.488 265.822 337.488H275.404C277.158 337.488 278.58 336.066 278.58 334.313V284.508C278.58 282.755 277.158 281.333 275.404 281.333Z" fill="#2648EA"/>
<path d="M298.691 314.191V304.609C298.691 302.855 297.27 301.433 295.516 301.433H245.712C243.958 301.433 242.536 302.855 242.536 304.609V314.191C242.536 315.944 243.958 317.366 245.712 317.366H295.516C297.27 317.366 298.691 315.944 298.691 314.191Z" fill="#2648EA"/>
<path d="M428.261 205.78H342.423L353.532 152.276H439.358L428.261 205.78Z" fill="#2648EA"/>
<path opacity="0.3" d="M428.261 205.78H342.423L353.532 152.276H439.358L428.261 205.78Z" fill="white"/>
<path opacity="0.3" d="M408.773 192.477H372.751L377.531 169.446H413.553L408.773 192.477Z" fill="white"/>
<path opacity="0.3" d="M370.602 192.477H372.752L377.532 169.446H375.381L370.602 192.477Z" fill="#2648EA"/>
<path opacity="0.3" d="M391.961 182.002H385.499L386.468 205.779H392.92L391.961 182.002Z" fill="#2648EA"/>
<path opacity="0.7" d="M343.872 205.78H342.423L353.532 152.276H354.98L343.872 205.78Z" fill="white"/>
<path d="M391.962 213.2H407.471L401.945 180.955H386.436L391.962 213.2Z" fill="#2648EA"/>
<path opacity="0.2" d="M391.962 213.2H407.471L401.945 180.955H386.436L391.962 213.2Z" fill="white"/>
<path d="M390.568 213.2H391.961L386.435 180.955H385.042L390.568 213.2Z" fill="#2648EA"/>
<path d="M391.215 211.373H379.115L375.951 213.2H391.215V211.373Z" fill="#2648EA"/>
<path d="M232.475 190.683H211.951V213.2H232.475V190.683Z" fill="#2648EA"/>
<path d="M220.241 190.683H232.475L236.096 185.201H223.862L220.241 190.683Z" fill="#2648EA"/>
<path opacity="0.3" d="M211.963 213.211H224.197V190.694H211.963V213.211Z" fill="white"/>
<path opacity="0.3" d="M232.475 198.638H216.342V208.655H232.475V198.638Z" fill="white"/>
<path d="M224.185 190.683H211.952L208.331 185.201H220.564L224.185 190.683Z" fill="#2648EA"/>
<path opacity="0.3" d="M224.185 190.683H211.952L208.331 185.201H220.564L224.185 190.683Z" fill="white"/>
</svg>
