<svg width="17" height="17" viewBox="0 0 17 17" fill="none" xmlns="http://www.w3.org/2000/svg">
<path fill-rule="evenodd" clip-rule="evenodd" d="M7.68359 2.93099C5.10626 2.93099 3.01693 5.02033 3.01693 7.59766C3.01693 10.175 5.10626 12.2643 7.68359 12.2643C10.2609 12.2643 12.3503 10.175 12.3503 7.59766C12.3503 5.02033 10.2609 2.93099 7.68359 2.93099ZM1.68359 7.59766C1.68359 4.28395 4.36988 1.59766 7.68359 1.59766C10.9973 1.59766 13.6836 4.28395 13.6836 7.59766C13.6836 10.9114 10.9973 13.5977 7.68359 13.5977C4.36988 13.5977 1.68359 10.9114 1.68359 7.59766Z" fill="#637381"/>
<path fill-rule="evenodd" clip-rule="evenodd" d="M10.9765 10.8925C11.2369 10.6322 11.659 10.6322 11.9193 10.8925L14.8193 13.7925C15.0797 14.0529 15.0797 14.475 14.8193 14.7353C14.559 14.9957 14.1369 14.9957 13.8765 14.7353L10.9765 11.8353C10.7162 11.575 10.7162 11.1529 10.9765 10.8925Z" fill="#637381"/>
</svg>
