<svg width="17" height="17" viewBox="0 0 17 17" fill="none" xmlns="http://www.w3.org/2000/svg">
<path d="M5.31563 0.273438H1.74375C0.7875 0.273438 0 1.06094 0 2.01719V5.58906C0 6.54531 0.7875 7.33281 1.74375 7.33281H5.31563C6.27188 7.33281 7.05938 6.54531 7.05938 5.58906V2.04531C7.0875 1.06094 6.3 0.273438 5.31563 0.273438ZM5.82188 5.61719C5.82188 5.89844 5.59688 6.12344 5.31563 6.12344H1.74375C1.4625 6.12344 1.2375 5.89844 1.2375 5.61719V2.04531C1.2375 1.76406 1.4625 1.53906 1.74375 1.53906H5.31563C5.59688 1.53906 5.82188 1.76406 5.82188 2.04531V5.61719Z" fill="#909097"/>
<path d="M14.6809 0.273438H11.109C10.1527 0.273438 9.36523 1.06094 9.36523 2.01719V5.58906C9.36523 6.54531 10.1527 7.33281 11.109 7.33281H14.6809C15.6371 7.33281 16.4246 6.54531 16.4246 5.58906V2.04531C16.4246 1.06094 15.6371 0.273438 14.6809 0.273438ZM15.1871 5.61719C15.1871 5.89844 14.9621 6.12344 14.6809 6.12344H11.109C10.8277 6.12344 10.6027 5.89844 10.6027 5.61719V2.04531C10.6027 1.76406 10.8277 1.53906 11.109 1.53906H14.6809C14.9621 1.53906 15.1871 1.76406 15.1871 2.04531V5.61719Z" fill="#909097"/>
<path d="M5.31563 9.24609H1.74375C0.7875 9.24609 0 10.0336 0 10.9898V14.5617C0 15.518 0.7875 16.3055 1.74375 16.3055H5.31563C6.27188 16.3055 7.05938 15.518 7.05938 14.5617V11.018C7.0875 10.0336 6.3 9.24609 5.31563 9.24609ZM5.82188 14.5898C5.82188 14.8711 5.59688 15.0961 5.31563 15.0961H1.74375C1.4625 15.0961 1.2375 14.8711 1.2375 14.5898V11.018C1.2375 10.7367 1.4625 10.5117 1.74375 10.5117H5.31563C5.59688 10.5117 5.82188 10.7367 5.82188 11.018V14.5898Z" fill="#909097"/>
<path d="M14.6809 9.24609H11.109C10.1527 9.24609 9.36523 10.0336 9.36523 10.9898V14.5617C9.36523 15.518 10.1527 16.3055 11.109 16.3055H14.6809C15.6371 16.3055 16.4246 15.518 16.4246 14.5617V11.018C16.4246 10.0336 15.6371 9.24609 14.6809 9.24609ZM15.1871 14.5898C15.1871 14.8711 14.9621 15.0961 14.6809 15.0961H11.109C10.8277 15.0961 10.6027 14.8711 10.6027 14.5898V11.018C10.6027 10.7367 10.8277 10.5117 11.109 10.5117H14.6809C14.9621 10.5117 15.1871 10.7367 15.1871 11.018V14.5898Z" fill="#909097"/>
</svg>
