<svg width="19" height="21" viewBox="0 0 19 21" fill="none" xmlns="http://www.w3.org/2000/svg">
<path d="M4.97305 8.23191V9.38906M4.97305 8.23191C3.93195 8.23191 3.0147 7.72053 2.47673 6.94404M4.97305 8.23191C6.01415 8.23191 6.93139 7.72053 7.46936 6.94404M2.47673 6.94404L1.37342 7.65335M2.47673 6.94404C2.15856 6.4848 1.97305 5.93282 1.97305 5.33906C1.97305 4.74538 2.15851 4.19346 2.47662 3.73425M7.46936 6.94404L8.57269 7.65335M7.46936 6.94404C7.78753 6.4848 7.97302 5.93282 7.97302 5.33906C7.97302 4.74538 7.78762 4.19346 7.46948 3.73425M4.97305 2.4462C6.01423 2.4462 6.93153 2.95766 7.46948 3.73425M4.97305 2.4462C3.93186 2.4462 3.01457 2.95766 2.47662 3.73425M4.97305 2.4462V1.28906M7.46948 3.73425L8.57305 3.02478M2.47662 3.73425L1.37305 3.02478" stroke="#909097" stroke-width="1.5" stroke-linecap="round"/>
<path d="M10.3734 1.28906H10.6189C13.5539 1.28906 15.0215 1.28906 16.0406 2.00712C16.3327 2.21285 16.5919 2.45683 16.8105 2.73166C17.5734 3.69087 17.5734 5.07209 17.5734 7.83452V10.1254C17.5734 12.7923 17.5734 14.1257 17.1514 15.1906C16.4729 16.9028 15.038 18.2533 13.2189 18.8918C12.0874 19.2891 10.6706 19.2891 7.83706 19.2891C6.21791 19.2891 5.40834 19.2891 4.76174 19.0621C3.72225 18.6972 2.90231 17.9255 2.5146 16.9472C2.27344 16.3386 2.27344 15.5767 2.27344 14.0527V11.1891" stroke="#909097" stroke-width="1.5" stroke-linecap="round" stroke-linejoin="round"/>
<path d="M17.5732 10.2891C17.5732 11.9459 16.2301 13.289 14.5733 13.289C13.9741 13.289 13.2676 13.1841 12.685 13.3402C12.1674 13.4788 11.763 13.8832 11.6243 14.4008C11.4683 14.9835 11.5732 15.6899 11.5732 16.2891C11.5732 17.9459 10.2301 19.2891 8.57324 19.2891" stroke="#909097" stroke-width="1.5" stroke-linecap="round" stroke-linejoin="round"/>
</svg>
