<svg width="20" height="21" viewBox="0 0 20 21" fill="none" xmlns="http://www.w3.org/2000/svg">
<g clip-path="url(#clip0_11033_10749)">
<path d="M7.29176 17.3753C7.97893 18.1402 8.98431 18.6226 10.1044 18.6226C11.2245 18.6226 12.2298 18.1402 12.917 17.3753M13.8546 1.12256C16.0924 2.21514 17.7666 4.25508 18.3332 6.70826M6.14512 1.12256C3.90723 2.21514 2.23313 4.25508 1.6665 6.70826M15.7272 11.4208V8.49107C15.7272 5.43107 13.2192 2.96475 10.1044 2.96475C6.98961 2.96475 4.4476 5.32592 4.4476 8.49107V11.4009C4.4476 11.8459 4.377 12.288 4.23851 12.7102L3.54617 14.8208C3.52721 14.8786 3.56954 14.9383 3.62949 14.9383H16.5389C16.6023 14.9383 16.6473 14.8776 16.6278 14.8184L15.9308 12.6934C15.7959 12.2822 15.7272 11.8528 15.7272 11.4208Z" stroke="#525D6A" stroke-width="1.67" stroke-linecap="round"/>
</g>
<defs>
<clipPath id="clip0_11033_10749">
<rect width="20" height="20" fill="white" transform="translate(0 0.289062)"/>
</clipPath>
</defs>
</svg>
