<svg width="22" height="21" viewBox="0 0 22 21" fill="none" xmlns="http://www.w3.org/2000/svg">
<path d="M2.34082 8.86377V13.6024C2.34082 16.283 2.34082 17.6232 3.17327 18.456C4.00572 19.2888 5.34553 19.2888 8.02515 19.2888H13.7095C16.3891 19.2888 17.7289 19.2888 18.5613 18.456C19.3938 17.6232 19.3938 16.283 19.3938 13.6024V8.86377" stroke="#909097" stroke-width="1.5" stroke-linecap="round"/>
<path d="M13.7092 15.019C13.0611 15.5943 12.0293 15.9664 10.8671 15.9664C9.70481 15.9664 8.673 15.5943 8.0249 15.019" stroke="#909097" stroke-width="1.5" stroke-linecap="round"/>
<path d="M9.10225 6.8957C8.8351 7.86052 7.86352 9.52481 6.01752 9.76602C4.3876 9.97899 3.15138 9.2675 2.83561 8.97002C2.48747 8.72882 1.69401 7.957 1.4997 7.47459C1.30538 6.99218 1.53208 5.94696 1.69401 5.52083L2.34133 3.64653C2.49936 3.17576 2.86928 2.06229 3.24853 1.68568C3.62779 1.30906 4.39563 1.29267 4.71167 1.29267H11.3486C13.0569 1.31681 16.7923 1.27744 17.5307 1.29268C18.2691 1.30792 18.7128 1.92688 18.8423 2.19221C19.9441 4.86083 20.3726 6.38917 20.3726 7.04042C20.2288 7.73516 19.6336 9.04515 17.5307 9.62135C15.3451 10.2201 14.106 9.05538 13.7173 8.60821M8.20357 8.60821C8.51124 8.98613 9.47637 9.74679 10.8754 9.76602C12.2745 9.78535 13.4825 8.80925 13.9116 8.31881C14.033 8.17408 14.2954 7.74474 14.5674 6.8957" stroke="#909097" stroke-width="1.5" stroke-linecap="round" stroke-linejoin="round"/>
</svg>
