<svg width="19" height="18" viewBox="0 0 19 18" fill="none" xmlns="http://www.w3.org/2000/svg">
<path d="M1.23877 10.0224V8.55576C1.23877 7.68909 1.9471 6.97242 2.8221 6.97242C4.33044 6.97242 4.9471 5.90576 4.18877 4.59742C3.75544 3.84742 4.01377 2.87242 4.7721 2.43909L6.21377 1.61409C6.8721 1.22242 7.7221 1.45576 8.11377 2.11409L8.20544 2.27242C8.95544 3.58076 10.1888 3.58076 10.9471 2.27242L11.0388 2.11409C11.4304 1.45576 12.2804 1.22242 12.9388 1.61409L14.3804 2.43909C15.1388 2.87242 15.3971 3.84742 14.9638 4.59742C14.2054 5.90576 14.8221 6.97242 16.3304 6.97242C17.1971 6.97242 17.9138 7.68076 17.9138 8.55576V10.0224C17.9138 10.8891 17.2054 11.6058 16.3304 11.6058C14.8221 11.6058 14.2054 12.6724 14.9638 13.9808C15.3971 14.7391 15.1388 15.7058 14.3804 16.1391L12.9388 16.9641C12.2804 17.3558 11.4304 17.1224 11.0388 16.4641L10.9471 16.3058C10.1971 14.9974 8.96377 14.9974 8.20544 16.3058L8.11377 16.4641C7.7221 17.1224 6.8721 17.3558 6.21377 16.9641L4.7721 16.1391C4.01377 15.7058 3.75544 14.7308 4.18877 13.9808C4.9471 12.6724 4.33044 11.6058 2.8221 11.6058C1.9471 11.6058 1.23877 10.8891 1.23877 10.0224Z" stroke="#909097" stroke-width="1.5" stroke-miterlimit="10" stroke-linecap="round" stroke-linejoin="round"/>
</svg>
